<svg xmlns="http://www.w3.org/2000/svg" xmlns:xlink="http://www.w3.org/1999/xlink" version="1.1" x="0px" y="0px" viewBox="0 0 100 100" enable-background="new 0 0 100 100" xml:space="preserve"><polygon points="84.08,95 15.92,95 8.879,58.292 91.121,58.292 "></polygon><g><path d="M90.232,55.468H84.6v-10.06c0-19.175-15.601-34.775-34.775-34.775c-19.176,0-34.775,15.6-34.775,34.775v10.06H9.416v-10.06   C9.416,23.127,27.543,5,49.824,5c22.28,0,40.408,18.127,40.408,40.408V55.468z"></path></g><circle cx="57.667" cy="41.886" r="4.581"></circle><circle cx="64.783" cy="31.642" r="5.292"></circle><path d="M42.998,34.719c2.53-1.931,3.104-5.429,3.104-5.429s-3.525-0.365-6.056,1.566c-2.528,1.932-3.103,5.431-3.103,5.431  S40.47,36.651,42.998,34.719z"></path><g><path d="M78.604,34.954c-3.949-2.582-12.115,2.92-18.234,12.287c-1.818,2.78-3.24,5.585-4.252,8.228h19.261   C80.917,46.461,82.399,37.432,78.604,34.954z"></path><path d="M51.705,52.818c0.872-1.508,1.381-3.254,1.381-5.122c0-5.657-4.585-10.244-10.242-10.244c-2.28,0-4.379,0.753-6.081,2.013   v-7.823h-2.998v7.574c-1.64-1.113-3.617-1.764-5.745-1.764c-5.658,0-10.245,4.586-10.245,10.244c0,1.851,0.497,3.582,1.355,5.08   h-0.003l1.643,2.692h29.324l1.62-2.65H51.705z"></path></g></svg>