<?xml version="1.0" encoding="utf-8"?><!DOCTYPE svg PUBLIC "-//W3C//DTD SVG 1.0//EN" "http://www.w3.org/TR/2001/REC-SVG-20010904/DTD/svg10.dtd"><svg version="1.0" xmlns="http://www.w3.org/2000/svg" xmlns:xlink="http://www.w3.org/1999/xlink" x="0px" y="0px" viewBox="0 0 100 38.449" enable-background="new 0 0 100 38.449" xml:space="preserve"><path d="M99.929,15.958c-0.053-0.283-0.157-0.619-0.364-1.056L80.803,0.005h-37.75c-0.874-0.054-1.348,0.359-1.763,0.841
	L28.672,13.487L1.078,18.071C0.694,18.406,0.309,18.735,0,19.599l0.059,9.493c0.598,1.521,1.006,1.324,1.459,1.536h5.312
	c0-12.905,19.225-12.856,19.225,0h49.021c0-12.933,19.08-12.906,19.08,0h4.354c0.731-0.067,1.142-0.713,1.49-1.47L99.929,15.958z
	 M59.408,15.346H33.254c-0.995-0.393-1.13-0.988-0.716-1.713l9.403-9.278c0.212-0.18,0.379-0.428,0.747-0.374h16.72V15.346z
	 M86.488,15.348H62.516V3.983h14.066c0.368-0.055,0.535,0.193,0.747,0.374l8.058,8.115C86.13,13.591,87.623,15.122,86.488,15.348z"></path><path d="M16.396,22.843c-4.31,0-7.804,3.493-7.804,7.803s3.494,7.804,7.804,7.804s7.804-3.494,7.804-7.804
	S20.705,22.843,16.396,22.843z M16.396,33.921c-1.819,0-3.294-1.475-3.294-3.293c0-1.819,1.475-3.294,3.294-3.294
	c1.818,0,3.293,1.475,3.293,3.294C19.688,32.446,18.214,33.921,16.396,33.921z"></path><path d="M84.615,22.839c-4.31,0-7.804,3.494-7.804,7.804s3.494,7.804,7.804,7.804s7.803-3.494,7.803-7.804
	S88.925,22.839,84.615,22.839z M84.615,33.921c-1.819,0-3.294-1.475-3.294-3.293c0-1.819,1.475-3.294,3.294-3.294
	c1.818,0,3.293,1.475,3.293,3.294C87.908,32.446,86.434,33.921,84.615,33.921z"></path></svg>