<?xml version="1.0" encoding="utf-8"?><!DOCTYPE svg PUBLIC "-//W3C//DTD SVG 1.1//EN" "http://www.w3.org/Graphics/SVG/1.1/DTD/svg11.dtd"><svg version="1.1" xmlns="http://www.w3.org/2000/svg" xmlns:xlink="http://www.w3.org/1999/xlink" x="0px" y="0px" viewBox="0 0 82.867 100" enable-background="new 0 0 82.867 100" xml:space="preserve"><path d="M78.557,41.867c-2.391,0-4.336,1.936-4.336,4.31v16.748c2.289,1.045,3.674,3.161,3.674,5.463
	c0,1.531-0.611,2.991-1.729,4.119l-8.886,9.748c-0.411,0.512-0.961,1.308-1.237,2.195c-0.152,0.475-0.197,0.983-0.211,1.619h-2.814
	c0.013-0.89,0.086-1.67,0.346-2.465c0.477-1.537,1.436-2.791,2.002-3.456l8.751-9.375c0.531-0.625,0.82-1.421,0.82-2.239
	c0-1.896-1.544-3.437-3.44-3.437c-0.899,0-1.748,0.34-2.393,0.964L50.958,84.282c-3.138,3.285-2.932,6.633-2.932,9.139L48.043,100
	h15.564v-2.765c0-1.793,0.35-2.977,1.767-4.312l14.302-15.186c2.047-2.394,3.19-5.456,3.19-8.627V46.177
	C82.867,43.803,80.937,41.867,78.557,41.867z"></path><path d="M13.765,66.062c-0.649-0.621-1.497-0.962-2.394-0.962c-1.897,0-3.444,1.54-3.444,3.435c0,0.82,0.29,1.616,0.821,2.241
	l8.753,9.375c0.565,0.664,1.525,1.916,2.003,3.453c0.257,0.797,0.33,1.575,0.346,2.466h-2.818c-0.011-0.637-0.058-1.146-0.209-1.62
	c-0.275-0.887-0.824-1.682-1.238-2.191l-8.886-9.752C5.58,71.379,4.97,69.919,4.97,68.388c0-2.302,1.382-4.418,3.674-5.463V46.177
	c0-2.374-1.946-4.31-4.337-4.31c-2.38,0-4.308,1.936-4.308,4.31V69.11c0,3.171,1.141,6.233,3.188,8.627L17.49,92.922
	c1.419,1.337,1.766,2.521,1.766,4.313V100h15.566l0.018-6.579c0-2.506,0.205-5.854-2.931-9.139L13.765,66.062z"></path><path d="M22.111,15.884c2.355,1.942,6.024,1.381,6.024,1.381s-0.151-3.706-2.508-5.648c-2.354-1.941-6.024-1.384-6.024-1.384
	S19.755,13.943,22.111,15.884z"></path><path d="M69.078,23.888h-5.948c0-0.763,0-1.529,0-2.294c0-1.695-0.638-3.277-1.393-4.764c-0.422-0.832-0.89-1.64-1.303-2.478
	c-0.293-0.598-0.572-1.237-0.688-1.901c0.389-0.249,0.531-0.78,0.453-1.24c-0.092-0.529-0.594-0.806-1.084-0.806
	c-0.613,0-1.229,0-1.842,0c-0.6,0-1.196,0-1.797,0c-0.49,0-0.951,0.211-1.102,0.726c-0.139,0.474,0.015,1.055,0.43,1.32
	c-0.191,1.161-0.857,2.252-1.404,3.267c-0.718,1.335-1.438,2.695-1.784,4.179c-0.286,1.231-0.196,2.547-0.196,3.803
	c0,0.064,0,0.127,0,0.189h-4.443c-1.219-1.281-2.579-2.46-3.943-3.246c-0.308-0.179-0.402-0.439-0.361-0.689
	c0.088-0.509,0.726-0.975,1.338-0.625c1.596,0.922,3.135,1.967,4.486,3.184c0,0.001,0.16-1.135-0.049-2.259
	c-0.225-1.198-0.761-2.077-0.761-2.077c-1.609-2.193-3.915-4.642-6.229-5.97c-0.919-0.528,0.061-1.84,0.979-1.312
	c1.593,0.916,3.129,1.962,4.479,3.175C44.946,4.237,41.186-0.53,36.429,0.047c-2.246,0.271-4.796,1.891-3.533,8.648l2.428,13.014
	c-1.632-2.199-4.241-3.629-7.189-3.629c-3.837,0-7.102,2.416-8.377,5.808h-5.969v34.556h55.289V23.888z M63.549,52.915H19.318
	V29.418h44.231V52.915z"></path></svg>